<svg width="32" height="32" viewBox="0 0 45 45" fill="none" xmlns="http://www.w3.org/2000/svg">
<path d="M22.5 45C34.9264 45 45 34.9264 45 22.5C45 10.0736 34.9264 0 22.5 0C10.0736 0 0 10.0736 0 22.5C0 34.9264 10.0736 45 22.5 45Z" fill="#4D4D4D"/>
<path d="M12.1412 22.5016L7.86854 26.7705L3.59961 22.5016L7.86854 18.2326L12.1412 22.5016ZM22.4996 12.1357L29.8151 19.455L34.0841 15.186L22.4996 3.60156L10.9151 15.186L15.1841 19.455L22.4996 12.1357ZM37.1344 18.2326L32.8654 22.5016L37.1344 26.7705L41.3996 22.5016L37.1344 18.2326ZM22.4996 32.8674L15.1841 25.5519L10.9151 29.8171L22.4996 41.4016L34.0841 29.8171L29.8151 25.5519L22.4996 32.8674ZM22.4996 26.7705L26.7685 22.5016L22.4996 18.2326L18.2307 22.5016L22.4996 26.7705Z" fill="#F3BA2F"/>
</svg>
