<svg width="45" height="45" viewBox="0 0 45 45" fill="none" xmlns="http://www.w3.org/2000/svg">
<path d="M22.5 45C34.9264 45 45 34.9264 45 22.5C45 10.0736 34.9264 0 22.5 0C10.0736 0 0 10.0736 0 22.5C0 34.9264 10.0736 45 22.5 45Z" fill="#627EEA"/>
<path d="M22.1621 7.19922V18.512L31.7237 22.7845L22.1621 7.19922Z" fill="white" fill-opacity="0.602"/>
<path d="M22.1625 7.19922L12.5996 22.7845L22.1625 18.512V7.19922Z" fill="white"/>
<path d="M22.1621 30.1169V37.8037L31.7301 24.5664L22.1621 30.1169Z" fill="white" fill-opacity="0.602"/>
<path d="M22.1625 37.8037V30.1157L12.5996 24.5664L22.1625 37.8037Z" fill="white"/>
<path d="M22.1621 28.3413L31.7237 22.7896L22.1621 18.5195V28.3413Z" fill="white" fill-opacity="0.2"/>
<path d="M12.5996 22.7896L22.1625 28.3413V18.5195L12.5996 22.7896Z" fill="white" fill-opacity="0.602"/>
</svg>
