<svg width="45" height="45" viewBox="0 0 45 45" fill="none" xmlns="http://www.w3.org/2000/svg">
<circle cx="22.5" cy="22.5" r="21.5" fill="url(#paint0_linear_4099_56)"/>
<g filter="url(#filter0_f_4099_56)">
<path fill-rule="evenodd" clip-rule="evenodd" d="M13.3787 29.3628C14.2782 29.3628 15.0074 30.092 15.0074 30.9915C15.0074 31.891 14.2782 32.6202 13.3787 32.6202C12.4792 32.6202 11.75 31.891 11.75 30.9915C11.75 30.092 12.4792 29.3628 13.3787 29.3628ZM27.7971 15.0394H27.8008C28.2068 15.039 28.5962 15.2001 28.8831 15.487C29.1701 15.7741 29.3312 16.1634 29.3309 16.5693V16.5732C29.3311 16.9104 29.2188 17.2381 29.0119 17.5044C28.9105 17.6354 28.7887 17.7491 28.6512 17.8415C28.51 17.9364 28.3543 18.0078 28.1902 18.0528C26.3295 18.5665 25.0408 20.2593 25.0408 22.1896C25.0408 24.1198 26.3295 25.8126 28.1902 26.3263C28.3543 26.3713 28.51 26.4427 28.6512 26.5376C28.7887 26.6299 28.9105 26.7437 29.0119 26.8746C29.2188 27.1409 29.3311 27.4686 29.3309 27.8058V27.8097C29.3312 28.2156 29.1701 28.605 28.8832 28.892C28.5962 29.179 28.2068 29.34 27.8009 29.3397H27.7971C27.4598 29.3399 27.1321 29.2276 26.8658 29.0208C26.7349 28.9193 26.6211 28.7975 26.5288 28.66C26.4339 28.5189 26.3625 28.3632 26.3175 28.1991C25.8014 26.34 24.11 25.0525 22.1807 25.0498C20.2515 25.0529 18.5604 26.3403 18.0439 28.1991C17.9989 28.3632 17.9276 28.5189 17.8327 28.66C17.7404 28.7975 17.6266 28.9193 17.4956 29.0208C17.2294 29.2276 16.9016 29.3399 16.5644 29.3397H16.5605C16.1547 29.3401 15.7653 29.179 15.4783 28.892C15.1912 28.605 15.0301 28.2157 15.0305 27.8098V27.8059C15.0304 27.4686 15.1426 27.141 15.3495 26.8747C15.4509 26.7437 15.5727 26.63 15.7102 26.5376C15.8514 26.4427 16.0071 26.3713 16.1712 26.3263C18.0302 25.8103 19.3178 24.1189 19.3205 22.1896C19.3174 20.2603 18.0299 18.5693 16.1712 18.0528C16.0071 18.0078 15.8514 17.9365 15.7102 17.8416C15.5727 17.7492 15.4509 17.6354 15.3495 17.5045C15.1425 17.2382 15.0304 16.9105 15.0305 16.5733V16.5694C15.0301 16.1635 15.1912 15.7741 15.4783 15.4872C15.7652 15.2002 16.1546 15.0391 16.5605 15.0394H16.5643C16.9016 15.0392 17.2293 15.1515 17.4956 15.3584C17.6265 15.4599 17.7403 15.5816 17.8326 15.7191C17.9275 15.8603 17.9988 16.016 18.0438 16.1801C18.5577 18.0407 20.2504 19.3293 22.1806 19.3293C24.1109 19.3293 25.8036 18.0407 26.3174 16.1801C26.3624 16.016 26.4338 15.8603 26.5287 15.7191C26.621 15.5816 26.7348 15.4599 26.8657 15.3584C27.1321 15.1515 27.4597 15.0392 27.7971 15.0394ZM15.0074 13.3876C15.0074 12.488 14.2782 11.7588 13.3787 11.7588C12.4792 11.7588 11.75 12.488 11.75 13.3876C11.75 14.287 12.4792 15.0163 13.3787 15.0163C14.2782 15.0163 15.0074 14.287 15.0074 13.3876ZM31.0058 29.3628C31.9053 29.3628 32.6345 30.092 32.6345 30.9915C32.6345 31.891 31.9053 32.6202 31.0058 32.6202C30.1063 32.6202 29.3771 31.891 29.3771 30.9915C29.3771 30.092 30.1063 29.3628 31.0058 29.3628ZM32.6345 13.3876C32.6345 12.488 31.9053 11.7588 31.0058 11.7588C30.1063 11.7588 29.3771 12.488 29.3771 13.3876C29.3771 14.287 30.1063 15.0163 31.0058 15.0163C31.9053 15.0163 32.6345 14.287 32.6345 13.3876ZM20.6924 22.8384C20.9445 23.447 21.5384 23.8439 22.1972 23.8439C23.0962 23.8428 23.8248 23.1142 23.8258 22.2152C23.8258 21.5564 23.429 20.9626 22.8203 20.7105C22.2117 20.4584 21.5112 20.5977 21.0454 21.0635C20.5797 21.5293 20.4403 22.2298 20.6924 22.8384Z" fill="#BF36FF"/>
</g>
<g style="mix-blend-mode:color-dodge">
<path fill-rule="evenodd" clip-rule="evenodd" d="M31.0184 29.3654C31.9185 29.3654 32.6482 30.0951 32.6482 30.9952C32.6482 31.8953 31.9185 32.625 31.0184 32.625C30.1183 32.625 29.3886 31.8953 29.3886 30.9952C29.3886 30.0951 30.1183 29.3654 31.0184 29.3654ZM13.3798 29.3654C14.2799 29.3654 15.0096 30.0951 15.0096 30.9952C15.0096 31.8953 14.2799 32.625 13.3798 32.625C12.4797 32.625 11.75 31.8953 11.75 30.9952C11.75 30.0951 12.4797 29.3654 13.3798 29.3654ZM27.8074 15.0327H27.8112V15.0327C28.2174 15.0323 28.607 15.1935 28.8942 15.4807C29.1814 15.7679 29.3426 16.1575 29.3422 16.5637V16.5675C29.3425 16.905 29.2301 17.2329 29.023 17.4994C28.9215 17.6304 28.7997 17.7443 28.6621 17.8367C28.5208 17.9316 28.365 18.003 28.2008 18.0481C26.339 18.5622 25.0494 20.256 25.0494 22.1876C25.0494 24.1191 26.339 25.8129 28.2008 26.327C28.365 26.3721 28.5208 26.4434 28.6621 26.5384C28.7997 26.6308 28.9215 26.7446 29.023 26.8757C29.2301 27.1422 29.3425 27.47 29.3422 27.8075V27.8113C29.3426 28.2175 29.1814 28.6071 28.8943 28.8943C28.607 29.1815 28.2174 29.3428 27.8113 29.3424H27.8074C27.47 29.3425 27.1421 29.2303 26.8756 29.0232C26.7446 28.9217 26.6307 28.7998 26.5383 28.6623C26.4433 28.521 26.3719 28.3652 26.3268 28.201C25.8105 26.3407 24.118 25.0524 22.1874 25.0496C20.2569 25.0527 18.5647 26.341 18.0479 28.201C18.0029 28.3652 17.9315 28.521 17.8365 28.6623C17.7441 28.7998 17.6302 28.9217 17.4993 29.0232C17.2328 29.2303 16.9049 29.3425 16.5674 29.3424H16.5635C16.1574 29.3428 15.7677 29.1816 15.4806 28.8944C15.1934 28.6071 15.0322 28.2175 15.0326 27.8114V27.8076C15.0324 27.4701 15.1447 27.1422 15.3518 26.8757C15.4532 26.7447 15.5751 26.6308 15.7127 26.5385C15.854 26.4435 16.0098 26.3721 16.1739 26.3271C18.0342 25.8106 19.3226 24.1182 19.3253 22.1876C19.3222 20.2571 18.0339 18.565 16.1739 18.0482C16.0098 18.0031 15.854 17.9317 15.7127 17.8367C15.5751 17.7444 15.4532 17.6305 15.3518 17.4995C15.1447 17.233 15.0324 16.9051 15.0326 16.5676V16.5638C15.0322 16.1576 15.1934 15.768 15.4806 15.4808C15.7677 15.1936 16.1573 15.0324 16.5635 15.0327H16.5674C16.9049 15.0326 17.2327 15.1448 17.4992 15.3519C17.6302 15.4535 17.744 15.5753 17.8365 15.7129C17.9314 15.8542 18.0028 16.01 18.0478 16.1742C18.562 18.036 20.2558 19.3254 22.1873 19.3254C24.1188 19.3254 25.8127 18.036 26.3268 16.1742C26.3718 16.01 26.4433 15.8542 26.5382 15.7129C26.6306 15.5753 26.7445 15.4535 26.8755 15.3519C27.142 15.1448 27.4699 15.0325 27.8074 15.0327ZM15.0096 13.3798C15.0096 12.4796 14.2799 11.75 13.3798 11.75C12.4797 11.75 11.75 12.4796 11.75 13.3798C11.75 14.2799 12.4797 15.0096 13.3798 15.0096C14.2799 15.0096 15.0096 14.2799 15.0096 13.3798ZM32.6482 13.3798C32.6482 12.4796 31.9185 11.75 31.0184 11.75C30.1183 11.75 29.3886 12.4796 29.3886 13.3798C29.3886 14.2799 30.1183 15.0096 31.0184 15.0096C31.9185 15.0096 32.6482 14.2799 32.6482 13.3798ZM20.6925 22.8377C20.9448 23.4467 21.539 23.8437 22.1982 23.8437C23.0979 23.8427 23.8269 23.1137 23.8279 22.214C23.8279 21.5548 23.4309 20.9605 22.8218 20.7083C22.2128 20.456 21.5118 20.5955 21.0458 21.0616C20.5797 21.5277 20.4402 22.2287 20.6925 22.8377Z" fill="url(#paint1_linear_4099_56)"/>
</g>
<defs>
<filter id="filter0_f_4099_56" x="8.79688" y="8.80567" width="26.7908" height="26.7676" filterUnits="userSpaceOnUse" color-interpolation-filters="sRGB">
<feFlood flood-opacity="0" result="BackgroundImageFix"/>
<feBlend mode="normal" in="SourceGraphic" in2="BackgroundImageFix" result="shape"/>
<feGaussianBlur stdDeviation="1.47656" result="effect1_foregroundBlur_4099_56"/>
</filter>
<linearGradient id="paint0_linear_4099_56" x1="22.5" y1="1" x2="22.5" y2="44" gradientUnits="userSpaceOnUse">
<stop stop-color="#1E038A"/>
<stop offset="1"/>
</linearGradient>
<linearGradient id="paint1_linear_4099_56" x1="6.39728" y1="32.625" x2="6.39728" y2="11.75" gradientUnits="userSpaceOnUse">
<stop offset="0.9999" stop-color="#FF008A"/>
<stop offset="1" stop-color="#73088E"/>
</linearGradient>
</defs>
</svg>
